<?xml version="1.0" standalone="no"?><!DOCTYPE svg PUBLIC "-//W3C//DTD SVG 1.1//EN" "http://www.w3.org/Graphics/SVG/1.1/DTD/svg11.dtd"><svg t="1596205699277" class="icon" viewBox="0 0 1024 1024" version="1.1" xmlns="http://www.w3.org/2000/svg" p-id="5201" xmlns:xlink="http://www.w3.org/1999/xlink" width="200" height="200"><defs><style type="text/css"></style></defs><path d="M252.223 122H766.32c65.046 0 119.75 48.785 127.165 113.407l60.223 524.8c8.06 70.232-42.34 133.7-112.572 141.758a128 128 0 0 1-14.593 0.835H192c-70.692 0-128-57.308-128-128a128 128 0 0 1 0.835-14.593l60.223-524.8C132.473 170.785 187.176 122 252.223 122z" fill="#FFFFFF" p-id="5202"></path><path d="M252.223 147.6c-52.037 0-95.8 39.028-101.732 90.726l-60.223 524.8A102.4 102.4 0 0 0 89.6 774.8c0 56.554 45.846 102.4 102.4 102.4h634.543c3.9 0 7.799-0.223 11.674-0.668 56.185-6.447 96.506-57.221 90.058-113.406l-60.223-524.8C862.12 186.628 818.357 147.6 766.32 147.6H252.223z m0-25.6H766.32c65.046 0 119.75 48.785 127.165 113.407l60.223 524.8c8.06 70.232-42.34 133.7-112.572 141.758a128 128 0 0 1-14.593 0.835H192c-70.692 0-128-57.308-128-128a128 128 0 0 1 0.835-14.593l60.223-524.8C132.473 170.785 187.176 122 252.223 122z" fill="#834038" p-id="5203"></path><path d="M235.024 292.4c6.637 0 9.312-11.733 8.027-35.2 1.285-23.467-1.39-35.2-8.027-35.2C225.07 222 217 237.76 217 257.2c0 19.44 8.07 35.2 18.024 35.2zM275.649 312c5.025 0 7.051-16 6.078-48 0.973-32-1.053-48-6.078-48C268.11 216 262 237.49 262 264s6.11 48 13.649 48z" fill="#834038" p-id="5204"></path><path d="M503.947 460.89c17.313-41.736 58.455-71.09 106.453-71.09 63.623 0 115.2 51.577 115.2 115.2 0 26.647-9.048 51.182-24.238 70.698 2.72-0.197 5.467-0.298 8.238-0.298 61.856 0 112 50.144 112 112s-50.144 112-112 112c-38.572 0-72.59-19.498-92.734-49.176C601.52 793.782 560.006 825 511.2 825c-52.763 0-97.005-36.485-108.871-85.603C384.866 778.527 345.618 805.8 300 805.8c-61.856 0-112-50.144-112-112s50.144-112 112-112c6.644 0 13.153 0.579 19.479 1.688C301.41 563.6 290.4 537.186 290.4 508.2c0-61.856 50.144-112 112-112 44.95 0 83.714 26.48 101.547 64.69z" fill="#5F4C63" p-id="5205"></path><path d="M405.6 511.4m-89.6 0a89.6 89.6 0 1 0 179.2 0 89.6 89.6 0 1 0-179.2 0Z" fill="#76C2EA" p-id="5206"></path><path d="M610.4 511.4m-89.6 0a89.6 89.6 0 1 0 179.2 0 89.6 89.6 0 1 0-179.2 0Z" fill="#F27474" p-id="5207"></path><path d="M303.2 690.6m-89.6 0a89.6 89.6 0 1 0 179.2 0 89.6 89.6 0 1 0-179.2 0Z" fill="#D495C6" p-id="5208"></path><path d="M514.4 709.8m-89.6 0a89.6 89.6 0 1 0 179.2 0 89.6 89.6 0 1 0-179.2 0Z" fill="#EFCB79" p-id="5209"></path><path d="M712.8 690.6m-89.6 0a89.6 89.6 0 1 0 179.2 0 89.6 89.6 0 1 0-179.2 0Z" fill="#B7CB90" p-id="5210"></path><path d="M350.255 441c-5.55 11.656-8.655 24.7-8.655 38.468 0 49.485 40.115 89.6 89.6 89.6 20.889 0 40.108-7.148 55.345-19.132-14.394 30.235-45.23 51.132-80.945 51.132-49.485 0-89.6-40.115-89.6-89.6 0-28.596 13.396-54.063 34.255-70.468zM555.055 441c-5.55 11.656-8.655 24.7-8.655 38.468 0 49.485 40.115 89.6 89.6 89.6 20.889 0 40.108-7.148 55.345-19.132-14.394 30.235-45.23 51.132-80.945 51.132-49.485 0-89.6-40.115-89.6-89.6 0-28.596 13.396-54.063 34.255-70.468zM247.855 620.2c-5.55 11.656-8.655 24.7-8.655 38.468 0 49.485 40.115 89.6 89.6 89.6 20.889 0 40.108-7.148 55.345-19.132-14.394 30.235-45.23 51.132-80.945 51.132-49.485 0-89.6-40.115-89.6-89.6 0-28.596 13.396-54.063 34.255-70.468zM459.055 639.4c-5.55 11.656-8.655 24.7-8.655 38.468 0 49.485 40.115 89.6 89.6 89.6 20.889 0 40.108-7.148 55.345-19.132-14.394 30.235-45.23 51.132-80.945 51.132-49.485 0-89.6-40.115-89.6-89.6 0-28.596 13.396-54.063 34.255-70.468zM657.455 620.2c-5.55 11.656-8.655 24.7-8.655 38.468 0 49.485 40.115 89.6 89.6 89.6 20.889 0 40.108-7.148 55.345-19.132-14.394 30.235-45.23 51.132-80.945 51.132-49.485 0-89.6-40.115-89.6-89.6 0-28.596 13.396-54.063 34.255-70.468z" fill="#000000" opacity=".242" p-id="5211"></path><path d="M428 476.2m-22.4 0a22.4 22.4 0 1 0 44.8 0 22.4 22.4 0 1 0-44.8 0Z" fill="#FFFFFF" opacity=".646" p-id="5212"></path><path d="M632.8 476.2m-22.4 0a22.4 22.4 0 1 0 44.8 0 22.4 22.4 0 1 0-44.8 0Z" fill="#FFFFFF" opacity=".646" p-id="5213"></path><path d="M325.6 655.4m-22.4 0a22.4 22.4 0 1 0 44.8 0 22.4 22.4 0 1 0-44.8 0Z" fill="#FFFFFF" opacity=".646" p-id="5214"></path><path d="M536.8 674.6m-22.4 0a22.4 22.4 0 1 0 44.8 0 22.4 22.4 0 1 0-44.8 0Z" fill="#FFFFFF" opacity=".646" p-id="5215"></path><path d="M735.2 655.4m-22.4 0a22.4 22.4 0 1 0 44.8 0 22.4 22.4 0 1 0-44.8 0Z" fill="#FFFFFF" opacity=".646" p-id="5216"></path><path d="M411.484 220.879C417.238 212.504 426.967 207 438 207c17.673 0 32 14.122 32 31.543 0 15.066-10.715 27.664-25.043 30.795V315.2a7 7 0 0 1-7 7H413a7 7 0 0 1-7-7v-87.486a7.003 7.003 0 0 1 5.484-6.835zM565.484 220.879C571.238 212.504 580.967 207 592 207c17.673 0 32 14.122 32 31.543 0 15.066-10.715 27.664-25.043 30.795V315.2a7 7 0 0 1-7 7H567a7 7 0 0 1-7-7v-87.486a7.003 7.003 0 0 1 5.484-6.835z" fill="#FAF270" p-id="5217"></path><path d="M437.8 239.8m-12.8 0a12.8 12.8 0 1 0 25.6 0 12.8 12.8 0 1 0-25.6 0Z" fill="#834038" p-id="5218"></path><path d="M591.8 239.8m-12.8 0a12.8 12.8 0 1 0 25.6 0 12.8 12.8 0 1 0-25.6 0Z" fill="#834038" p-id="5219"></path><path d="M483 255.6a41.6 28.8 90 1 0 57.6 0 41.6 28.8 90 1 0-57.6 0Z" fill="#FAF270" p-id="5220"></path><path d="M409.412 239.57v0.211c-0.01 0.305-0.01 0.305-0.012 0.612v62.529c0 8.99 7.288 16.278 16.278 16.278 8.99 0 16.279-7.288 16.279-16.278v-35.96l2.516-0.55C457.55 263.555 467 252.087 467 238.742 467 223.1 454.116 210.4 438.2 210.4s-28.8 12.7-28.8 28.343c0 0.276 0.004 0.552 0.012 0.828z m-6.412-0.827C403 219.545 418.77 204 438.2 204c19.43 0 35.2 15.545 35.2 34.743 0 15.51-10.373 28.925-25.043 33.274v30.905c0 12.525-10.154 22.678-22.679 22.678-12.525 0-22.678-10.153-22.678-22.678v-62.53c0.002-0.382 0.003-0.42 0.012-0.732a34.883 34.883 0 0 1-0.012-0.917zM563.412 239.57v0.211c-0.01 0.305-0.01 0.305-0.012 0.612v62.529c0 8.99 7.288 16.278 16.278 16.278 8.99 0 16.279-7.288 16.279-16.278v-35.96l2.516-0.55C611.55 263.555 621 252.087 621 238.742 621 223.1 608.116 210.4 592.2 210.4s-28.8 12.7-28.8 28.343c0 0.276 0.004 0.552 0.012 0.828z m-6.412-0.827C557 219.545 572.77 204 592.2 204c19.43 0 35.2 15.545 35.2 34.743 0 15.51-10.373 28.925-25.043 33.274v30.905c0 12.525-10.154 22.678-22.679 22.678-12.525 0-22.678-10.153-22.678-22.678v-62.53c0.002-0.382 0.003-0.42 0.012-0.732a34.883 34.883 0 0 1-0.012-0.917zM512 300.6c-17.977 0-32-20.255-32-44.8 0-24.545 14.023-44.8 32-44.8s32 20.255 32 44.8c0 24.545-14.023 44.8-32 44.8z m0-6.4c13.834 0 25.6-16.995 25.6-38.4 0-21.405-11.766-38.4-25.6-38.4-13.834 0-25.6 16.995-25.6 38.4 0 21.405 11.766 38.4 25.6 38.4z" fill="#834038" p-id="5221"></path><path d="M499 259a16 12.8 90 1 0 25.6 0 16 12.8 90 1 0-25.6 0Z" fill="#834038" p-id="5222"></path></svg>